<?xml version="1.0" encoding="utf-8"?>
<!-- Generator: Adobe Illustrator 21.1.0, SVG Export Plug-In . SVG Version: 6.00 Build 0)  -->
<svg version="1.1" id="Layer_1" xmlns="http://www.w3.org/2000/svg" xmlns:xlink="http://www.w3.org/1999/xlink" x="0px" y="0px"
	 viewBox="0 0 1920 798" enable-background="new 0 0 1920 798" xml:space="preserve">
<path fill="#575DC7" d="M1708.6,788H211.4C95.1,788,0,692.9,0,576.6V221.4C0,105.1,95.1,10,211.4,10h1497.2
	c116.3,0,211.4,95.1,211.4,211.4v355.2C1920,692.9,1824.9,788,1708.6,788z"/>
<path fill="#585FC8" d="M1584.6,740.4H335.4c-107.2,0-194.8-87.7-194.8-194.8V248c0-107.2,87.7-194.8,194.8-194.8h1249.3
	c107.2,0,194.8,87.7,194.8,194.8v297.6C1779.5,652.8,1691.8,740.4,1584.6,740.4z"/>
<path fill="#5A61C9" d="M1460.7,692.9H459.3c-98.1,0-178.3-80.2-178.3-178.3v-240c0-98.1,80.2-178.3,178.3-178.3h1001.3
	c98.1,0,178.3,80.2,178.3,178.3v240C1638.9,612.7,1558.7,692.9,1460.7,692.9z"/>
<path fill="#5C64CA" d="M1336.7,645.3H583.3c-88.9,0-161.7-72.8-161.7-161.7V301.2c0-88.9,72.8-161.7,161.7-161.7h753.4
	c88.9,0,161.7,72.8,161.7,161.7v182.4C1498.4,572.6,1425.6,645.3,1336.7,645.3z"/>
<path fill="#6068CC" d="M1212.7,597.8H707.3c-79.8,0-145.1-65.3-145.1-145.1V327.8c0-79.8,65.3-145.1,145.1-145.1h505.5
	c79.8,0,145.1,65.3,145.1,145.1v124.8C1357.9,532.5,1292.6,597.8,1212.7,597.8z"/>
<path fill="#636CCE" d="M1088.8,550.2H831.2c-70.7,0-128.6-57.9-128.6-128.6v-67.2c0-70.7,57.9-128.6,128.6-128.6h257.6
	c70.7,0,128.6,57.9,128.6,128.6v67.2C1217.4,492.4,1159.5,550.2,1088.8,550.2z"/>
<path fill="#6771D1" d="M964.8,502.7h-9.6c-61.6,0-112-50.4-112-112V381c0-61.6,50.4-112,112-112h9.6c61.6,0,112,50.4,112,112v9.6
	C1076.8,452.3,1026.4,502.7,964.8,502.7z"/>
</svg>
